<svg width="1128" height="1176" viewBox="0 0 1128 1176" fill="none" xmlns="http://www.w3.org/2000/svg">
<path d="M720.941 1158.82H746.591V1133.17H720.941V1158.82ZM741.654 1143.53H736.234V1138.11H741.654V1143.53ZM725.877 1138.11H731.3V1148.47H741.654V1153.89H725.877V1138.11ZM763.294 1133.17C760.757 1133.17 758.278 1133.93 756.169 1135.34C754.06 1136.75 752.416 1138.75 751.445 1141.09C750.475 1143.44 750.221 1146.01 750.715 1148.5C751.21 1150.99 752.432 1153.27 754.225 1155.07C756.019 1156.86 758.304 1158.08 760.792 1158.58C763.28 1159.07 765.858 1158.82 768.202 1157.85C770.545 1156.88 772.548 1155.23 773.958 1153.13C775.367 1151.02 776.119 1148.54 776.119 1146C776.115 1142.6 774.763 1139.34 772.358 1136.94C769.954 1134.53 766.694 1133.18 763.294 1133.17ZM763.294 1153.89C761.734 1153.89 760.209 1153.43 758.912 1152.56C757.614 1151.69 756.603 1150.46 756.006 1149.02C755.409 1147.58 755.253 1145.99 755.557 1144.46C755.862 1142.93 756.613 1141.53 757.716 1140.42C758.819 1139.32 760.225 1138.57 761.755 1138.26C763.285 1137.96 764.871 1138.12 766.313 1138.71C767.754 1139.31 768.986 1140.32 769.853 1141.62C770.719 1142.91 771.182 1144.44 771.182 1146C771.179 1148.09 770.347 1150.1 768.868 1151.57C767.389 1153.05 765.385 1153.88 763.294 1153.89ZM822.013 1133.17C819.476 1133.17 816.997 1133.93 814.887 1135.34C812.778 1136.75 811.134 1138.75 810.163 1141.09C809.193 1143.43 808.938 1146.01 809.433 1148.5C809.928 1150.99 811.149 1153.27 812.943 1155.07C814.737 1156.86 817.022 1158.08 819.51 1158.58C821.997 1159.07 824.576 1158.82 826.92 1157.85C829.263 1156.88 831.266 1155.23 832.675 1153.13C834.085 1151.02 834.837 1148.54 834.837 1146C834.833 1142.6 833.481 1139.34 831.077 1136.94C828.673 1134.53 825.413 1133.18 822.013 1133.17ZM822.013 1153.89C820.453 1153.89 818.928 1153.43 817.63 1152.56C816.333 1151.69 815.322 1150.46 814.725 1149.02C814.128 1147.58 813.971 1145.99 814.275 1144.46C814.58 1142.93 815.331 1141.53 816.434 1140.42C817.537 1139.32 818.943 1138.57 820.473 1138.26C822.003 1137.96 823.589 1138.12 825.03 1138.71C826.472 1139.31 827.704 1140.32 828.571 1141.62C829.437 1142.91 829.9 1144.44 829.9 1146C829.897 1148.09 829.065 1150.1 827.586 1151.57C826.108 1153.05 824.104 1153.88 822.013 1153.89ZM792.653 1133.17C790.116 1133.17 787.637 1133.93 785.528 1135.34C783.419 1136.75 781.775 1138.75 780.804 1141.09C779.833 1143.44 779.58 1146.01 780.074 1148.5C780.569 1150.99 781.791 1153.27 783.584 1155.07C785.378 1156.86 787.663 1158.08 790.151 1158.58C792.639 1159.07 795.217 1158.82 797.561 1157.85C799.904 1156.88 801.907 1155.23 803.317 1153.13C804.726 1151.02 805.478 1148.54 805.478 1146C805.474 1142.6 804.121 1139.34 801.717 1136.94C799.313 1134.53 796.053 1133.18 792.653 1133.17ZM792.653 1153.89C791.199 1153.89 789.774 1153.49 788.534 1152.73C787.294 1151.97 786.287 1150.89 785.626 1149.59C784.964 1148.3 784.673 1146.84 784.784 1145.4C784.896 1143.95 785.405 1142.56 786.257 1141.38C787.109 1140.2 788.269 1139.28 789.61 1138.72C790.952 1138.16 792.422 1137.98 793.858 1138.21C795.295 1138.43 796.641 1139.04 797.75 1139.98C798.859 1140.92 799.686 1142.15 800.141 1143.53H792.653V1148.47H800.141C799.62 1150.04 798.617 1151.41 797.272 1152.39C795.928 1153.36 794.312 1153.89 792.653 1153.89Z" fill="white" fill-opacity="0.8"/>
<path d="M1030.59 1150.52H1033.42V1164.41H1030.59V1150.52Z" fill="white" fill-opacity="0.8"/>
<path d="M1035.06 1159.65C1035.06 1158.65 1035.35 1157.67 1035.91 1156.84C1036.46 1156.01 1037.25 1155.37 1038.17 1154.98C1039.09 1154.6 1040.1 1154.5 1041.08 1154.69C1042.06 1154.89 1042.96 1155.36 1043.67 1156.07C1044.37 1156.77 1044.85 1157.67 1045.05 1158.65C1045.24 1159.63 1045.14 1160.64 1044.76 1161.57C1044.38 1162.49 1043.74 1163.28 1042.91 1163.83C1042.08 1164.39 1041.1 1164.68 1040.1 1164.68C1039.44 1164.69 1038.78 1164.56 1038.17 1164.31C1037.55 1164.06 1036.99 1163.69 1036.52 1163.22C1036.05 1162.76 1035.68 1162.2 1035.43 1161.58C1035.18 1160.97 1035.05 1160.31 1035.06 1159.65ZM1042.29 1159.65C1042.28 1159.22 1042.15 1158.8 1041.9 1158.45C1041.65 1158.09 1041.3 1157.82 1040.9 1157.66C1040.5 1157.51 1040.06 1157.47 1039.64 1157.56C1039.22 1157.65 1038.84 1157.87 1038.54 1158.18C1038.23 1158.48 1038.03 1158.87 1037.95 1159.3C1037.87 1159.72 1037.92 1160.16 1038.09 1160.56C1038.25 1160.95 1038.53 1161.29 1038.89 1161.53C1039.25 1161.77 1039.67 1161.9 1040.1 1161.9C1040.4 1161.9 1040.69 1161.85 1040.97 1161.74C1041.24 1161.63 1041.49 1161.46 1041.69 1161.25C1041.9 1161.04 1042.06 1160.79 1042.16 1160.51C1042.26 1160.24 1042.31 1159.94 1042.29 1159.65Z" fill="white" fill-opacity="0.8"/>
<path d="M1056.53 1154.89V1163.94C1056.53 1167.14 1054.03 1168.49 1051.5 1168.49C1050.61 1168.55 1049.72 1168.37 1048.93 1167.97C1048.13 1167.56 1047.46 1166.94 1047 1166.18L1049.43 1164.78C1049.63 1165.17 1049.93 1165.49 1050.31 1165.7C1050.69 1165.92 1051.12 1166.01 1051.56 1165.97C1051.84 1166.02 1052.14 1166 1052.41 1165.92C1052.69 1165.84 1052.94 1165.69 1053.16 1165.49C1053.37 1165.3 1053.53 1165.05 1053.63 1164.78C1053.74 1164.51 1053.78 1164.22 1053.75 1163.94V1163.06C1053.42 1163.47 1052.99 1163.79 1052.51 1164.01C1052.03 1164.22 1051.5 1164.32 1050.97 1164.29C1049.69 1164.29 1048.46 1163.78 1047.55 1162.88C1046.65 1161.97 1046.14 1160.74 1046.14 1159.46C1046.14 1158.18 1046.65 1156.95 1047.55 1156.04C1048.46 1155.13 1049.69 1154.62 1050.97 1154.62C1051.5 1154.6 1052.03 1154.7 1052.51 1154.91C1052.99 1155.13 1053.41 1155.45 1053.75 1155.86V1154.92L1056.53 1154.89ZM1053.75 1159.46C1053.77 1159 1053.65 1158.55 1053.41 1158.15C1053.17 1157.76 1052.81 1157.45 1052.39 1157.26C1051.98 1157.08 1051.51 1157.02 1051.06 1157.09C1050.6 1157.17 1050.18 1157.38 1049.85 1157.7C1049.52 1158.02 1049.29 1158.43 1049.19 1158.88C1049.1 1159.33 1049.14 1159.8 1049.31 1160.22C1049.48 1160.65 1049.77 1161.02 1050.16 1161.27C1050.54 1161.53 1050.99 1161.67 1051.44 1161.67C1051.74 1161.69 1052.05 1161.65 1052.33 1161.55C1052.61 1161.44 1052.87 1161.28 1053.09 1161.08C1053.3 1160.87 1053.48 1160.62 1053.59 1160.34C1053.7 1160.06 1053.76 1159.76 1053.75 1159.46Z" fill="white" fill-opacity="0.8"/>
<path d="M1058.17 1159.65C1058.17 1158.65 1058.46 1157.67 1059.01 1156.84C1059.57 1156.01 1060.35 1155.37 1061.27 1154.98C1062.2 1154.6 1063.21 1154.5 1064.19 1154.69C1065.17 1154.89 1066.07 1155.36 1066.77 1156.07C1067.48 1156.77 1067.96 1157.67 1068.16 1158.65C1068.35 1159.63 1068.25 1160.64 1067.87 1161.57C1067.49 1162.49 1066.84 1163.28 1066.01 1163.83C1065.18 1164.39 1064.21 1164.68 1063.21 1164.68C1062.55 1164.69 1061.89 1164.56 1061.27 1164.31C1060.66 1164.06 1060.1 1163.69 1059.63 1163.22C1059.16 1162.76 1058.79 1162.2 1058.54 1161.58C1058.29 1160.97 1058.16 1160.31 1058.17 1159.65ZM1065.4 1159.65C1065.39 1159.22 1065.25 1158.8 1065.01 1158.45C1064.76 1158.09 1064.41 1157.82 1064.01 1157.66C1063.61 1157.51 1063.17 1157.47 1062.75 1157.56C1062.33 1157.65 1061.94 1157.87 1061.64 1158.18C1061.34 1158.48 1061.14 1158.87 1061.06 1159.3C1060.98 1159.72 1061.03 1160.16 1061.19 1160.56C1061.36 1160.95 1061.64 1161.29 1062 1161.53C1062.36 1161.77 1062.78 1161.9 1063.21 1161.9C1063.5 1161.9 1063.8 1161.85 1064.07 1161.73C1064.34 1161.62 1064.58 1161.46 1064.79 1161.24C1064.99 1161.03 1065.15 1160.78 1065.25 1160.51C1065.35 1160.23 1065.4 1159.94 1065.38 1159.65H1065.4Z" fill="white" fill-opacity="0.8"/>
<path d="M1069.57 1152.34C1069.57 1152 1069.67 1151.67 1069.86 1151.38C1070.04 1151.1 1070.31 1150.88 1070.63 1150.75C1070.94 1150.62 1071.29 1150.59 1071.62 1150.65C1071.95 1150.72 1072.26 1150.88 1072.5 1151.12C1072.74 1151.36 1072.9 1151.67 1072.97 1152C1073.04 1152.34 1073 1152.68 1072.87 1153C1072.74 1153.31 1072.52 1153.58 1072.24 1153.77C1071.96 1153.96 1071.62 1154.06 1071.28 1154.06C1070.83 1154.06 1070.39 1153.87 1070.07 1153.55C1069.75 1153.23 1069.57 1152.79 1069.57 1152.34ZM1069.86 1154.89H1072.69V1164.41H1069.86V1154.89Z" fill="white" fill-opacity="0.8"/>
<path d="M1085.04 1159.65C1085.08 1160.28 1084.99 1160.91 1084.78 1161.5C1084.57 1162.1 1084.24 1162.64 1083.82 1163.11C1083.4 1163.58 1082.89 1163.96 1082.32 1164.23C1081.75 1164.5 1081.13 1164.65 1080.5 1164.68C1079.97 1164.71 1079.45 1164.62 1078.96 1164.41C1078.47 1164.21 1078.03 1163.91 1077.67 1163.52V1168.24H1074.84V1154.89H1077.67V1155.79C1078.03 1155.4 1078.47 1155.09 1078.96 1154.89C1079.45 1154.69 1079.97 1154.6 1080.5 1154.62C1081.13 1154.65 1081.75 1154.81 1082.31 1155.08C1082.88 1155.35 1083.39 1155.73 1083.82 1156.19C1084.24 1156.66 1084.56 1157.2 1084.77 1157.8C1084.98 1158.39 1085.08 1159.02 1085.04 1159.65ZM1082.21 1159.65C1082.2 1159.2 1082.06 1158.77 1081.8 1158.41C1081.55 1158.05 1081.2 1157.77 1080.79 1157.6C1080.37 1157.44 1079.92 1157.4 1079.49 1157.49C1079.05 1157.57 1078.66 1157.79 1078.34 1158.1C1078.03 1158.42 1077.81 1158.81 1077.72 1159.25C1077.64 1159.68 1077.68 1160.13 1077.84 1160.55C1078 1160.96 1078.29 1161.31 1078.65 1161.57C1079.01 1161.82 1079.44 1161.96 1079.89 1161.97C1080.2 1161.99 1080.51 1161.94 1080.8 1161.83C1081.09 1161.72 1081.35 1161.55 1081.57 1161.33C1081.79 1161.11 1081.95 1160.85 1082.06 1160.56C1082.17 1160.27 1082.21 1159.96 1082.19 1159.65H1082.21Z" fill="white" fill-opacity="0.8"/>
<path d="M1093.86 1161.56C1093.86 1163.75 1091.97 1164.68 1089.9 1164.68C1089.07 1164.75 1088.23 1164.58 1087.51 1164.17C1086.78 1163.77 1086.19 1163.16 1085.81 1162.41L1088.28 1161.01C1088.38 1161.35 1088.6 1161.65 1088.89 1161.85C1089.19 1162.06 1089.54 1162.16 1089.9 1162.13C1090.59 1162.13 1090.93 1161.91 1090.93 1161.54C1090.93 1160.49 1086.2 1161.05 1086.2 1157.76C1086.2 1155.68 1087.96 1154.63 1089.98 1154.63C1090.73 1154.61 1091.47 1154.79 1092.12 1155.15C1092.77 1155.51 1093.32 1156.03 1093.7 1156.67L1091.22 1157.98C1091.11 1157.73 1090.93 1157.51 1090.7 1157.37C1090.47 1157.22 1090.21 1157.14 1089.93 1157.14C1089.44 1157.14 1089.14 1157.32 1089.14 1157.67C1089.18 1158.76 1093.86 1158.03 1093.86 1161.56Z" fill="white" fill-opacity="0.8"/>
<path d="M1104.29 1154.89V1164.41H1101.46V1163.52C1101.13 1163.91 1100.71 1164.22 1100.23 1164.43C1099.76 1164.63 1099.25 1164.72 1098.74 1164.68C1096.85 1164.68 1095.18 1163.31 1095.18 1160.73V1154.89H1098.01V1160.32C1097.98 1160.55 1098.01 1160.78 1098.09 1161C1098.16 1161.22 1098.29 1161.42 1098.45 1161.59C1098.62 1161.75 1098.81 1161.88 1099.03 1161.96C1099.25 1162.04 1099.49 1162.07 1099.72 1162.05C1100.76 1162.05 1101.48 1161.44 1101.48 1160.09V1154.89H1104.29Z" fill="white" fill-opacity="0.8"/>
<path d="M1120.66 1158.57V1164.41H1117.83V1158.82C1117.83 1157.87 1117.37 1157.25 1116.46 1157.25C1115.55 1157.25 1114.97 1157.92 1114.97 1159.04V1164.41H1112.14V1158.82C1112.14 1157.87 1111.68 1157.25 1110.77 1157.25C1109.85 1157.25 1109.28 1157.92 1109.28 1159.04V1164.41H1106.45V1154.89H1109.28V1155.77C1109.58 1155.38 1109.97 1155.07 1110.41 1154.87C1110.86 1154.67 1111.35 1154.59 1111.83 1154.62C1112.32 1154.6 1112.81 1154.7 1113.24 1154.92C1113.68 1155.14 1114.05 1155.47 1114.33 1155.88C1114.64 1155.45 1115.06 1155.12 1115.54 1154.9C1116.03 1154.68 1116.56 1154.58 1117.08 1154.62C1119.24 1154.62 1120.66 1156.19 1120.66 1158.57Z" fill="white" fill-opacity="0.8"/>
<path d="M1123.08 1154.83C1124.25 1154.83 1125.19 1153.88 1125.19 1152.72C1125.19 1151.55 1124.25 1150.6 1123.08 1150.6C1121.91 1150.6 1120.96 1151.55 1120.96 1152.72C1120.96 1153.88 1121.91 1154.83 1123.08 1154.83Z" fill="white" fill-opacity="0.8"/>
<path d="M1062.64 1143.31C1068.12 1143.31 1072.55 1138.88 1072.55 1133.41C1072.55 1127.93 1068.12 1123.5 1062.64 1123.5C1057.17 1123.5 1052.74 1127.93 1052.74 1133.41C1052.74 1138.88 1057.17 1143.31 1062.64 1143.31Z" fill="white" fill-opacity="0.8"/>
<path d="M1084.79 1143.31C1090.26 1143.31 1094.69 1138.88 1094.69 1133.41C1094.69 1127.93 1090.26 1123.5 1084.79 1123.5C1079.32 1123.5 1074.88 1127.93 1074.88 1133.41C1074.88 1138.88 1079.32 1143.31 1084.79 1143.31Z" fill="white" fill-opacity="0.8"/>
<path d="M1050.41 1123.5H1030.6V1143.3H1050.41V1123.5Z" fill="white" fill-opacity="0.8"/>
<path d="M27.2104 1127.74V1120.24H3.61044V1171.76H27.2104V1164.26C22.376 1164.26 17.7394 1162.34 14.321 1158.92C10.9026 1155.49 8.98208 1150.84 8.98208 1146C8.98208 1141.16 10.9026 1136.51 14.321 1133.08C17.7394 1129.66 22.376 1127.74 27.2104 1127.74Z" fill="white" fill-opacity="0.8"/>
<path d="M27.2104 1127.74V1164.26C32.0449 1164.26 36.6814 1162.34 40.0999 1158.92C43.5184 1155.49 45.4388 1150.84 45.4388 1146C45.4388 1141.16 43.5184 1136.51 40.0999 1133.08C36.6814 1129.66 32.0449 1127.74 27.2104 1127.74Z" fill="white" fill-opacity="0.8"/>
<path d="M58.683 1132.32H63.9666V1157.82H58.683V1132.32Z" fill="white" fill-opacity="0.8"/>
<path d="M66.9254 1149.09C66.9254 1147.25 67.469 1145.46 68.4874 1143.94C69.5057 1142.41 70.9529 1141.22 72.6455 1140.52C74.3382 1139.82 76.2 1139.64 77.995 1140.01C79.79 1140.37 81.4374 1141.26 82.7284 1142.56C84.0193 1143.86 84.8959 1145.51 85.2467 1147.31C85.5974 1149.11 85.4068 1150.98 84.6988 1152.67C83.9908 1154.36 82.7976 1155.81 81.2701 1156.82C79.7426 1157.83 77.9497 1158.36 76.1188 1158.35C74.9045 1158.36 73.7003 1158.13 72.5772 1157.67C71.4541 1157.2 70.4344 1156.52 69.5781 1155.66C68.7218 1154.79 68.0462 1153.77 67.5906 1152.64C67.1351 1151.51 66.909 1150.31 66.9254 1149.09ZM80.1695 1149.09C80.1488 1148.3 79.8957 1147.53 79.442 1146.88C78.9883 1146.23 78.3543 1145.74 77.6188 1145.45C76.8835 1145.16 76.0797 1145.09 75.3079 1145.26C74.536 1145.43 73.8305 1145.82 73.2794 1146.39C72.7283 1146.95 72.3562 1147.67 72.2096 1148.45C72.0631 1149.22 72.1485 1150.03 72.4553 1150.76C72.7621 1151.49 73.2766 1152.11 73.9346 1152.55C74.5924 1152.98 75.3643 1153.22 76.154 1153.22C76.6917 1153.23 77.2257 1153.13 77.7227 1152.92C78.2197 1152.72 78.669 1152.41 79.0426 1152.02C79.4161 1151.63 79.7058 1151.17 79.8937 1150.67C80.0817 1150.16 80.1636 1149.63 80.1343 1149.09H80.1695Z" fill="white" fill-opacity="0.8"/>
<path d="M106.218 1140.35V1156.96C106.218 1162.82 101.639 1165.31 97.0066 1165.31C95.3727 1165.44 93.7339 1165.11 92.2748 1164.37C90.8154 1163.62 89.5935 1162.48 88.7466 1161.07L93.2024 1158.49C93.5634 1159.22 94.1378 1159.83 94.8489 1160.22C95.5601 1160.61 96.3741 1160.78 97.1827 1160.7C97.6978 1160.76 98.2206 1160.71 98.7135 1160.55C99.2066 1160.39 99.6577 1160.12 100.035 1159.76C100.412 1159.4 100.705 1158.97 100.894 1158.48C101.083 1158 101.163 1157.48 101.128 1156.96V1155.35C100.513 1156.1 99.7327 1156.69 98.8493 1157.09C97.9657 1157.48 97.0032 1157.66 96.0379 1157.61C93.7024 1157.61 91.4627 1156.68 89.8112 1155.03C88.1597 1153.37 87.2319 1151.13 87.2319 1148.79C87.2319 1146.45 88.1597 1144.2 89.8112 1142.55C91.4627 1140.89 93.7024 1139.96 96.0379 1139.96C97.0032 1139.92 97.9657 1140.1 98.8493 1140.49C99.7327 1140.88 100.513 1141.48 101.128 1142.22V1140.46L106.218 1140.35ZM101.128 1148.74C101.163 1147.89 100.945 1147.06 100.503 1146.34C100.06 1145.62 99.4129 1145.05 98.6441 1144.7C97.8755 1144.35 97.0208 1144.24 96.1895 1144.38C95.3584 1144.53 94.5888 1144.92 93.9799 1145.5C93.3711 1146.09 92.9507 1146.84 92.7728 1147.67C92.595 1148.49 92.6677 1149.35 92.9817 1150.14C93.2959 1150.92 93.8369 1151.59 94.5353 1152.07C95.2337 1152.54 96.0576 1152.79 96.9009 1152.79C97.4513 1152.83 98.0037 1152.76 98.5226 1152.57C99.0416 1152.38 99.5157 1152.09 99.9139 1151.71C100.312 1151.32 100.626 1150.86 100.835 1150.35C101.044 1149.84 101.144 1149.29 101.128 1148.74Z" fill="white" fill-opacity="0.8"/>
<path d="M109.194 1149.09C109.194 1147.26 109.737 1145.46 110.754 1143.94C111.77 1142.42 113.215 1141.23 114.906 1140.53C116.597 1139.83 118.457 1139.64 120.251 1140C122.045 1140.36 123.692 1141.25 124.985 1142.54C126.277 1143.84 127.156 1145.49 127.511 1147.29C127.866 1149.09 127.68 1150.95 126.978 1152.65C126.275 1154.34 125.087 1155.78 123.564 1156.8C122.042 1157.82 120.252 1158.36 118.423 1158.35C117.206 1158.36 115.999 1158.13 114.873 1157.67C113.747 1157.21 112.724 1156.53 111.865 1155.66C111.005 1154.8 110.326 1153.78 109.867 1152.65C109.409 1151.52 109.18 1150.31 109.194 1149.09ZM122.438 1149.09C122.417 1148.3 122.164 1147.53 121.709 1146.88C121.255 1146.23 120.62 1145.73 119.883 1145.45C119.147 1145.16 118.342 1145.09 117.57 1145.26C116.798 1145.43 116.092 1145.82 115.542 1146.39C114.992 1146.96 114.621 1147.68 114.476 1148.46C114.332 1149.24 114.42 1150.04 114.729 1150.77C115.039 1151.5 115.556 1152.12 116.216 1152.55C116.876 1152.99 117.65 1153.22 118.44 1153.22C118.978 1153.23 119.512 1153.13 120.009 1152.92C120.506 1152.72 120.955 1152.41 121.329 1152.02C121.702 1151.63 121.992 1151.17 122.18 1150.67C122.368 1150.16 122.45 1149.63 122.421 1149.09H122.438Z" fill="white" fill-opacity="0.8"/>
<path d="M130.099 1135.68C130.099 1135.06 130.283 1134.45 130.628 1133.93C130.972 1133.41 131.462 1133.01 132.035 1132.77C132.608 1132.54 133.238 1132.47 133.846 1132.6C134.454 1132.72 135.013 1133.02 135.451 1133.46C135.89 1133.89 136.188 1134.45 136.309 1135.06C136.43 1135.67 136.368 1136.3 136.131 1136.88C135.893 1137.45 135.491 1137.94 134.976 1138.29C134.46 1138.63 133.854 1138.82 133.234 1138.82C132.406 1138.81 131.614 1138.47 131.028 1137.89C130.442 1137.3 130.109 1136.51 130.099 1135.68ZM130.61 1140.35H135.894V1157.82H130.61V1140.35Z" fill="white" fill-opacity="0.8"/>
<path d="M158.507 1149.09C158.567 1150.25 158.396 1151.41 158.005 1152.51C157.615 1153.6 157.011 1154.61 156.231 1155.47C155.45 1156.33 154.507 1157.03 153.456 1157.53C152.405 1158.02 151.267 1158.3 150.107 1158.35C149.122 1158.42 148.136 1158.26 147.221 1157.89C146.306 1157.52 145.486 1156.95 144.823 1156.22V1164.85H139.539V1140.35H144.823V1141.99C145.487 1141.26 146.308 1140.7 147.223 1140.33C148.138 1139.96 149.123 1139.81 150.107 1139.88C151.262 1139.93 152.396 1140.21 153.443 1140.7C154.49 1141.19 155.431 1141.88 156.211 1142.74C156.991 1143.59 157.596 1144.6 157.99 1145.68C158.383 1146.77 158.56 1147.93 158.507 1149.09ZM153.224 1149.09C153.203 1148.27 152.941 1147.47 152.471 1146.8C152.001 1146.13 151.344 1145.61 150.582 1145.32C149.82 1145.02 148.987 1144.95 148.187 1145.12C147.388 1145.3 146.657 1145.7 146.087 1146.29C145.517 1146.88 145.133 1147.62 144.983 1148.43C144.833 1149.24 144.924 1150.07 145.244 1150.82C145.564 1151.58 146.099 1152.22 146.783 1152.67C147.466 1153.12 148.267 1153.36 149.085 1153.36C149.646 1153.38 150.205 1153.29 150.726 1153.08C151.247 1152.87 151.719 1152.56 152.109 1152.15C152.5 1151.75 152.801 1151.27 152.994 1150.74C153.186 1150.21 153.264 1149.65 153.224 1149.09Z" fill="white" fill-opacity="0.8"/>
<path d="M174.587 1152.58C174.587 1156.61 171.065 1158.32 167.331 1158.32C165.808 1158.45 164.279 1158.13 162.942 1157.39C161.604 1156.65 160.52 1155.52 159.828 1154.15L164.372 1151.58C164.552 1152.21 164.943 1152.75 165.478 1153.13C166.013 1153.51 166.661 1153.69 167.313 1153.64C168.564 1153.64 169.198 1153.25 169.198 1152.55C169.198 1150.62 160.621 1151.65 160.621 1145.59C160.621 1141.78 163.826 1139.88 167.454 1139.88C168.833 1139.81 170.204 1140.13 171.419 1140.78C172.635 1141.44 173.65 1142.41 174.358 1143.6L169.814 1146C169.614 1145.54 169.286 1145.16 168.87 1144.89C168.454 1144.61 167.969 1144.47 167.472 1144.46C166.556 1144.46 166.01 1144.82 166.01 1145.44C166.01 1147.45 174.587 1146.12 174.587 1152.58Z" fill="white" fill-opacity="0.8"/>
<path d="M193.731 1140.35V1157.82H188.448V1156.18C187.847 1156.91 187.085 1157.48 186.223 1157.86C185.36 1158.24 184.422 1158.41 183.481 1158.35C179.959 1158.35 176.947 1155.83 176.947 1151.12V1140.35H182.231V1150.32C182.188 1150.74 182.238 1151.16 182.375 1151.56C182.513 1151.95 182.733 1152.31 183.021 1152.62C183.312 1152.92 183.664 1153.15 184.054 1153.31C184.443 1153.46 184.86 1153.53 185.278 1153.5C187.18 1153.5 188.518 1152.37 188.518 1149.97V1140.35H193.731Z" fill="white" fill-opacity="0.8"/>
<path d="M223.672 1147.09V1157.82H218.388V1147.55C218.388 1145.79 217.56 1144.69 215.887 1144.69C214.214 1144.69 213.157 1145.91 213.157 1147.98V1157.82H207.874V1147.55C207.874 1145.79 207.046 1144.69 205.373 1144.69C203.7 1144.69 202.643 1145.91 202.643 1147.98V1157.82H197.359V1140.35H202.643V1141.96C203.191 1141.25 203.904 1140.69 204.723 1140.32C205.54 1139.96 206.437 1139.81 207.328 1139.88C208.221 1139.83 209.112 1140.02 209.911 1140.42C210.711 1140.82 211.393 1141.42 211.889 1142.17C212.47 1141.39 213.238 1140.77 214.122 1140.37C215.005 1139.97 215.977 1139.8 216.944 1139.88C221.065 1139.88 223.672 1142.74 223.672 1147.09Z" fill="white" fill-opacity="0.8"/>
<path d="M228.11 1140.25C230.25 1140.25 231.984 1138.51 231.984 1136.36C231.984 1134.22 230.25 1132.48 228.11 1132.48C225.97 1132.48 224.235 1134.22 224.235 1136.36C224.235 1138.51 225.97 1140.25 228.11 1140.25Z" fill="white" fill-opacity="0.8"/>
<path d="M429.585 1150.52H432.418V1164.41H429.585V1150.52Z" fill="white" fill-opacity="0.8"/>
<path d="M434.061 1159.65C434.059 1158.65 434.353 1157.67 434.906 1156.84C435.459 1156.01 436.246 1155.37 437.167 1154.98C438.089 1154.6 439.103 1154.5 440.082 1154.69C441.06 1154.89 441.96 1155.36 442.666 1156.07C443.372 1156.77 443.853 1157.67 444.049 1158.65C444.244 1159.63 444.145 1160.64 443.763 1161.57C443.382 1162.49 442.736 1163.28 441.906 1163.83C441.077 1164.39 440.101 1164.68 439.104 1164.68C438.44 1164.69 437.782 1164.56 437.167 1164.31C436.553 1164.06 435.994 1163.69 435.525 1163.22C435.055 1162.76 434.684 1162.2 434.432 1161.58C434.181 1160.97 434.055 1160.31 434.061 1159.65ZM441.294 1159.65C441.283 1159.22 441.145 1158.8 440.898 1158.45C440.651 1158.09 440.305 1157.82 439.904 1157.66C439.502 1157.51 439.064 1157.47 438.643 1157.56C438.221 1157.65 437.836 1157.87 437.536 1158.18C437.235 1158.48 437.032 1158.87 436.952 1159.3C436.872 1159.72 436.918 1160.16 437.086 1160.56C437.253 1160.95 437.534 1161.29 437.893 1161.53C438.252 1161.77 438.673 1161.9 439.104 1161.9C439.398 1161.9 439.692 1161.85 439.965 1161.74C440.238 1161.63 440.486 1161.46 440.692 1161.25C440.897 1161.04 441.057 1160.79 441.161 1160.51C441.265 1160.24 441.31 1159.94 441.294 1159.65Z" fill="white" fill-opacity="0.8"/>
<path d="M455.535 1154.89V1163.94C455.535 1167.14 453.032 1168.49 450.502 1168.49C449.612 1168.55 448.721 1168.37 447.926 1167.97C447.132 1167.56 446.464 1166.94 445.997 1166.18L448.434 1164.78C448.627 1165.17 448.933 1165.49 449.312 1165.7C449.69 1165.92 450.125 1166.01 450.558 1165.97C450.843 1166.02 451.136 1166 451.413 1165.92C451.69 1165.84 451.944 1165.69 452.156 1165.49C452.367 1165.3 452.531 1165.05 452.634 1164.78C452.737 1164.51 452.776 1164.22 452.749 1163.94V1163.06C452.416 1163.47 451.991 1163.79 451.509 1164.01C451.026 1164.22 450.5 1164.32 449.973 1164.29C448.69 1164.29 447.461 1163.78 446.554 1162.88C445.647 1161.97 445.138 1160.74 445.138 1159.46C445.138 1158.18 445.647 1156.95 446.554 1156.04C447.461 1155.13 448.69 1154.62 449.973 1154.62C450.5 1154.6 451.025 1154.7 451.507 1154.91C451.989 1155.13 452.414 1155.45 452.749 1155.86V1154.92L455.535 1154.89ZM452.749 1159.46C452.768 1159 452.649 1158.55 452.407 1158.15C452.166 1157.76 451.813 1157.45 451.394 1157.26C450.975 1157.08 450.509 1157.02 450.056 1157.09C449.603 1157.17 449.184 1157.38 448.852 1157.7C448.52 1158.02 448.291 1158.43 448.194 1158.88C448.098 1159.33 448.137 1159.8 448.309 1160.22C448.48 1160.65 448.775 1161.02 449.156 1161.27C449.536 1161.53 449.985 1161.67 450.445 1161.67C450.745 1161.69 451.046 1161.65 451.329 1161.55C451.612 1161.44 451.87 1161.28 452.087 1161.08C452.304 1160.87 452.475 1160.62 452.589 1160.34C452.703 1160.06 452.758 1159.76 452.749 1159.46Z" fill="white" fill-opacity="0.8"/>
<path d="M457.168 1159.65C457.166 1158.65 457.461 1157.67 458.014 1156.84C458.567 1156.01 459.353 1155.37 460.275 1154.98C461.196 1154.6 462.21 1154.5 463.189 1154.69C464.168 1154.89 465.067 1155.36 465.773 1156.07C466.479 1156.77 466.961 1157.67 467.156 1158.65C467.351 1159.63 467.252 1160.64 466.871 1161.57C466.489 1162.49 465.843 1163.28 465.013 1163.83C464.184 1164.39 463.209 1164.68 462.211 1164.68C461.547 1164.69 460.889 1164.56 460.274 1164.31C459.66 1164.06 459.101 1163.69 458.632 1163.22C458.162 1162.76 457.791 1162.2 457.539 1161.58C457.288 1160.97 457.162 1160.31 457.168 1159.65ZM464.402 1159.65C464.391 1159.22 464.253 1158.8 464.005 1158.45C463.758 1158.09 463.412 1157.82 463.011 1157.66C462.61 1157.51 462.171 1157.47 461.75 1157.56C461.329 1157.65 460.944 1157.87 460.643 1158.18C460.342 1158.48 460.139 1158.87 460.059 1159.3C459.979 1159.72 460.026 1160.16 460.193 1160.56C460.36 1160.95 460.641 1161.29 461 1161.53C461.359 1161.77 461.78 1161.9 462.211 1161.9C462.504 1161.9 462.795 1161.85 463.066 1161.73C463.337 1161.62 463.583 1161.46 463.786 1161.24C463.99 1161.03 464.148 1160.78 464.251 1160.51C464.354 1160.23 464.398 1159.94 464.383 1159.65H464.402Z" fill="white" fill-opacity="0.8"/>
<path d="M468.566 1152.34C468.566 1152 468.667 1151.67 468.856 1151.38C469.045 1151.1 469.313 1150.88 469.627 1150.75C469.941 1150.62 470.287 1150.59 470.62 1150.65C470.953 1150.72 471.26 1150.88 471.5 1151.12C471.74 1151.36 471.904 1151.67 471.97 1152C472.037 1152.34 472.003 1152.68 471.873 1153C471.743 1153.31 471.522 1153.58 471.24 1153.77C470.957 1153.96 470.625 1154.06 470.285 1154.06C469.83 1154.06 469.394 1153.87 469.072 1153.55C468.75 1153.23 468.569 1152.79 468.566 1152.34ZM468.859 1154.89H471.692V1164.41H468.859V1154.89Z" fill="white" fill-opacity="0.8"/>
<path d="M484.043 1159.65C484.077 1160.28 483.987 1160.91 483.777 1161.5C483.567 1162.1 483.242 1162.64 482.819 1163.11C482.397 1163.58 481.887 1163.96 481.317 1164.23C480.748 1164.5 480.13 1164.65 479.501 1164.68C478.973 1164.71 478.445 1164.62 477.956 1164.41C477.466 1164.21 477.027 1163.91 476.668 1163.52V1168.24H473.835V1154.89H476.668V1155.79C477.027 1155.4 477.466 1155.09 477.956 1154.89C478.445 1154.69 478.973 1154.6 479.501 1154.62C480.13 1154.65 480.746 1154.81 481.315 1155.08C481.884 1155.35 482.394 1155.73 482.816 1156.19C483.238 1156.66 483.564 1157.2 483.774 1157.8C483.985 1158.39 484.076 1159.02 484.043 1159.65ZM481.21 1159.65C481.199 1159.2 481.058 1158.77 480.805 1158.41C480.551 1158.05 480.197 1157.77 479.785 1157.6C479.374 1157.44 478.923 1157.4 478.488 1157.49C478.054 1157.57 477.656 1157.79 477.342 1158.1C477.029 1158.42 476.814 1158.81 476.725 1159.25C476.635 1159.68 476.676 1160.13 476.84 1160.55C477.004 1160.96 477.286 1161.31 477.65 1161.57C478.014 1161.82 478.444 1161.96 478.887 1161.97C479.197 1161.99 479.506 1161.94 479.796 1161.83C480.086 1161.72 480.349 1161.55 480.567 1161.33C480.785 1161.11 480.954 1160.85 481.062 1160.56C481.169 1160.27 481.214 1159.96 481.191 1159.65H481.21Z" fill="white" fill-opacity="0.8"/>
<path d="M492.863 1161.56C492.863 1163.75 490.974 1164.68 488.897 1164.68C488.067 1164.75 487.234 1164.58 486.505 1164.17C485.777 1163.77 485.186 1163.16 484.808 1162.41L487.282 1161.01C487.383 1161.35 487.598 1161.65 487.891 1161.85C488.185 1162.06 488.54 1162.16 488.897 1162.13C489.586 1162.13 489.926 1161.91 489.926 1161.54C489.926 1160.49 485.205 1161.05 485.205 1157.76C485.205 1155.68 486.961 1154.63 488.982 1154.63C489.728 1154.61 490.466 1154.79 491.12 1155.15C491.774 1155.51 492.321 1156.03 492.703 1156.67L490.219 1157.98C490.109 1157.73 489.93 1157.51 489.702 1157.37C489.474 1157.22 489.207 1157.14 488.935 1157.14C488.444 1157.14 488.142 1157.32 488.142 1157.67C488.179 1158.76 492.863 1158.03 492.863 1161.56Z" fill="white" fill-opacity="0.8"/>
<path d="M503.288 1154.89V1164.41H500.455V1163.52C500.126 1163.91 499.707 1164.22 499.235 1164.43C498.762 1164.63 498.248 1164.72 497.735 1164.68C495.847 1164.68 494.175 1163.31 494.175 1160.73V1154.89H497.008V1160.32C496.983 1160.55 497.01 1160.78 497.087 1161C497.164 1161.22 497.289 1161.42 497.452 1161.59C497.616 1161.75 497.815 1161.88 498.033 1161.96C498.252 1162.04 498.486 1162.07 498.718 1162.05C499.756 1162.05 500.483 1161.44 500.483 1160.09V1154.89H503.288Z" fill="white" fill-opacity="0.8"/>
<path d="M519.662 1158.57V1164.41H516.829V1158.82C516.829 1157.87 516.367 1157.25 515.46 1157.25C514.554 1157.25 513.968 1157.92 513.968 1159.04V1164.41H511.135V1158.82C511.135 1157.87 510.682 1157.25 509.766 1157.25C508.85 1157.25 508.283 1157.92 508.283 1159.04V1164.41H505.451V1154.89H508.283V1155.77C508.58 1155.38 508.968 1155.07 509.413 1154.87C509.858 1154.67 510.347 1154.59 510.833 1154.62C511.322 1154.6 511.808 1154.7 512.245 1154.92C512.682 1155.14 513.054 1155.47 513.326 1155.88C513.642 1155.45 514.061 1155.12 514.543 1154.9C515.025 1154.68 515.555 1154.58 516.083 1154.62C518.236 1154.62 519.662 1156.19 519.662 1158.57Z" fill="white" fill-opacity="0.8"/>
<path d="M522.08 1154.83C523.248 1154.83 524.195 1153.88 524.195 1152.72C524.195 1151.55 523.248 1150.6 522.08 1150.6C520.912 1150.6 519.964 1151.55 519.964 1152.72C519.964 1153.88 520.912 1154.83 522.08 1154.83Z" fill="white" fill-opacity="0.8"/>
<path d="M461.644 1143.31C467.115 1143.31 471.55 1138.88 471.55 1133.41C471.55 1127.93 467.115 1123.5 461.644 1123.5C456.174 1123.5 451.739 1127.93 451.739 1133.41C451.739 1138.88 456.174 1143.31 461.644 1143.31Z" fill="white" fill-opacity="0.8"/>
<path d="M483.788 1143.31C489.259 1143.31 493.694 1138.88 493.694 1133.41C493.694 1127.93 489.259 1123.5 483.788 1123.5C478.317 1123.5 473.882 1127.93 473.882 1133.41C473.882 1138.88 478.317 1143.31 483.788 1143.31Z" fill="white" fill-opacity="0.8"/>
<path d="M449.406 1123.5H429.604V1143.3H449.406V1123.5Z" fill="white" fill-opacity="0.8"/>
</svg>
